<mxfile host="app.diagrams.net" modified="2021-04-15T08:49:18.762Z" agent="5.0 (Windows NT 10.0; Win64; x64) AppleWebKit/537.36 (KHTML, like Gecko) Chrome/89.0.4389.128 Safari/537.36" etag="0SJgeO_LbCxMp_SHMSVR" version="14.6.0" type="github">
  <diagram id="MvgmMicMm3Qo9Lu6UEQC" name="Page-1">
    <mxGraphModel dx="1422" dy="1931" grid="1" gridSize="10" guides="1" tooltips="1" connect="1" arrows="1" fold="1" page="1" pageScale="1" pageWidth="827" pageHeight="1169" math="0" shadow="0">
      <root>
        <mxCell id="0" />
        <mxCell id="1" parent="0" />
        <mxCell id="xGOn01LmJezI7kxOc0na-1" value="AQS 锁争用" style="swimlane;html=1;childLayout=stackLayout;resizeParent=1;resizeParentMax=0;startSize=20;" parent="1" vertex="1">
          <mxGeometry x="100" y="-1100" width="530" height="520" as="geometry" />
        </mxCell>
        <mxCell id="xGOn01LmJezI7kxOc0na-2" value="线程1" style="swimlane;html=1;startSize=20;fillColor=#e1d5e7;strokeColor=#9673a6;" parent="xGOn01LmJezI7kxOc0na-1" vertex="1">
          <mxGeometry y="20" width="150" height="500" as="geometry" />
        </mxCell>
        <mxCell id="xGOn01LmJezI7kxOc0na-15" value="执行业务逻辑" style="whiteSpace=wrap;html=1;" parent="xGOn01LmJezI7kxOc0na-2" vertex="1">
          <mxGeometry x="20" y="275" width="95" height="35" as="geometry" />
        </mxCell>
        <mxCell id="xGOn01LmJezI7kxOc0na-17" value="release()" style="whiteSpace=wrap;html=1;" parent="xGOn01LmJezI7kxOc0na-2" vertex="1">
          <mxGeometry x="20" y="370" width="95" height="35" as="geometry" />
        </mxCell>
        <mxCell id="xGOn01LmJezI7kxOc0na-18" value="" style="edgeStyle=orthogonalEdgeStyle;rounded=0;orthogonalLoop=1;jettySize=auto;html=1;" parent="xGOn01LmJezI7kxOc0na-2" source="xGOn01LmJezI7kxOc0na-15" target="xGOn01LmJezI7kxOc0na-17" edge="1">
          <mxGeometry relative="1" as="geometry" />
        </mxCell>
        <mxCell id="xGOn01LmJezI7kxOc0na-3" value="AQS" style="swimlane;html=1;startSize=20;fillColor=#d5e8d4;strokeColor=#82b366;" parent="xGOn01LmJezI7kxOc0na-1" vertex="1">
          <mxGeometry x="150" y="20" width="240" height="500" as="geometry" />
        </mxCell>
        <mxCell id="xGOn01LmJezI7kxOc0na-4" value="线程2" style="swimlane;html=1;startSize=20;fillColor=#dae8fc;strokeColor=#6c8ebf;" parent="xGOn01LmJezI7kxOc0na-1" vertex="1">
          <mxGeometry x="390" y="20" width="140" height="500" as="geometry" />
        </mxCell>
        <mxCell id="xGOn01LmJezI7kxOc0na-6" value="&lt;br&gt;&lt;br&gt;&lt;br&gt;&lt;br&gt;" style="ellipse;html=1;shape=startState;fillColor=#000000;strokeColor=#ff0000;verticalAlign=bottom;" parent="1" vertex="1">
          <mxGeometry x="152.5" y="-1050" width="30" height="30" as="geometry" />
        </mxCell>
        <mxCell id="xGOn01LmJezI7kxOc0na-7" value="" style="edgeStyle=orthogonalEdgeStyle;html=1;verticalAlign=bottom;endArrow=open;endSize=8;strokeColor=#ff0000;entryX=0.5;entryY=0;entryDx=0;entryDy=0;" parent="1" source="xGOn01LmJezI7kxOc0na-6" target="xGOn01LmJezI7kxOc0na-8" edge="1">
          <mxGeometry relative="1" as="geometry">
            <mxPoint x="167.5" y="-1000" as="targetPoint" />
          </mxGeometry>
        </mxCell>
        <mxCell id="xGOn01LmJezI7kxOc0na-10" value="1. tryAcquire 尝试操作" style="edgeStyle=orthogonalEdgeStyle;rounded=0;orthogonalLoop=1;jettySize=auto;html=1;entryX=0;entryY=0;entryDx=0;entryDy=0;" parent="1" source="xGOn01LmJezI7kxOc0na-8" target="xGOn01LmJezI7kxOc0na-9" edge="1">
          <mxGeometry x="-0.3333" y="-10" relative="1" as="geometry">
            <Array as="points">
              <mxPoint x="325" y="-970" />
            </Array>
            <mxPoint as="offset" />
          </mxGeometry>
        </mxCell>
        <mxCell id="xGOn01LmJezI7kxOc0na-12" value="" style="edgeStyle=orthogonalEdgeStyle;rounded=0;orthogonalLoop=1;jettySize=auto;html=1;" parent="1" source="xGOn01LmJezI7kxOc0na-8" target="xGOn01LmJezI7kxOc0na-11" edge="1">
          <mxGeometry relative="1" as="geometry" />
        </mxCell>
        <mxCell id="xGOn01LmJezI7kxOc0na-8" value="acquire()&amp;nbsp;" style="html=1;" parent="1" vertex="1">
          <mxGeometry x="122.5" y="-975" width="90" height="30" as="geometry" />
        </mxCell>
        <mxCell id="xGOn01LmJezI7kxOc0na-50" value="4.唤醒线程" style="edgeStyle=orthogonalEdgeStyle;rounded=0;orthogonalLoop=1;jettySize=auto;html=1;entryX=0;entryY=0;entryDx=0;entryDy=0;dashed=1;exitX=0.76;exitY=0.975;exitDx=0;exitDy=0;exitPerimeter=0;" parent="1" source="xGOn01LmJezI7kxOc0na-9" target="xGOn01LmJezI7kxOc0na-39" edge="1">
          <mxGeometry x="-0.3847" y="-1" relative="1" as="geometry">
            <mxPoint as="offset" />
          </mxGeometry>
        </mxCell>
        <mxCell id="xGOn01LmJezI7kxOc0na-9" value="state 变量" style="ellipse;whiteSpace=wrap;html=1;align=center;fillColor=#d5e8d4;strokeColor=#82b366;" parent="1" vertex="1">
          <mxGeometry x="310" y="-870" width="100" height="40" as="geometry" />
        </mxCell>
        <mxCell id="xGOn01LmJezI7kxOc0na-14" value="是" style="edgeStyle=orthogonalEdgeStyle;rounded=0;orthogonalLoop=1;jettySize=auto;html=1;entryX=0.5;entryY=0;entryDx=0;entryDy=0;" parent="1" source="xGOn01LmJezI7kxOc0na-11" target="xGOn01LmJezI7kxOc0na-15" edge="1">
          <mxGeometry relative="1" as="geometry">
            <mxPoint x="167.5" y="-840" as="targetPoint" />
          </mxGeometry>
        </mxCell>
        <mxCell id="xGOn01LmJezI7kxOc0na-11" value="操作成功？" style="rhombus;whiteSpace=wrap;html=1;" parent="1" vertex="1">
          <mxGeometry x="127.5" y="-920" width="80" height="50" as="geometry" />
        </mxCell>
        <mxCell id="xGOn01LmJezI7kxOc0na-19" style="edgeStyle=orthogonalEdgeStyle;rounded=0;orthogonalLoop=1;jettySize=auto;html=1;entryX=0;entryY=1;entryDx=0;entryDy=0;" parent="1" source="xGOn01LmJezI7kxOc0na-17" target="xGOn01LmJezI7kxOc0na-9" edge="1">
          <mxGeometry relative="1" as="geometry" />
        </mxCell>
        <mxCell id="xGOn01LmJezI7kxOc0na-20" value="3.tryReleas 尝试操作" style="edgeLabel;html=1;align=center;verticalAlign=middle;resizable=0;points=[];" parent="xGOn01LmJezI7kxOc0na-19" vertex="1" connectable="0">
          <mxGeometry x="-0.3018" y="-2" relative="1" as="geometry">
            <mxPoint x="-30" y="-2" as="offset" />
          </mxGeometry>
        </mxCell>
        <mxCell id="xGOn01LmJezI7kxOc0na-22" value="" style="edgeStyle=orthogonalEdgeStyle;rounded=0;orthogonalLoop=1;jettySize=auto;html=1;entryX=0.5;entryY=0;entryDx=0;entryDy=0;" parent="1" source="xGOn01LmJezI7kxOc0na-17" target="xGOn01LmJezI7kxOc0na-23" edge="1">
          <mxGeometry relative="1" as="geometry">
            <mxPoint x="167.5" y="-575" as="targetPoint" />
          </mxGeometry>
        </mxCell>
        <mxCell id="xGOn01LmJezI7kxOc0na-23" value="" style="ellipse;html=1;shape=endState;fillColor=#000000;strokeColor=#ff0000;" parent="1" vertex="1">
          <mxGeometry x="152.5" y="-620" width="30" height="30" as="geometry" />
        </mxCell>
        <mxCell id="xGOn01LmJezI7kxOc0na-24" value="&lt;br&gt;&lt;br&gt;&lt;br&gt;&lt;br&gt;" style="ellipse;html=1;shape=startState;fillColor=#000000;strokeColor=#ff0000;verticalAlign=bottom;" parent="1" vertex="1">
          <mxGeometry x="547.5" y="-1060" width="30" height="30" as="geometry" />
        </mxCell>
        <mxCell id="xGOn01LmJezI7kxOc0na-25" value="" style="edgeStyle=orthogonalEdgeStyle;html=1;verticalAlign=bottom;endArrow=open;endSize=8;strokeColor=#ff0000;entryX=0.5;entryY=0;entryDx=0;entryDy=0;" parent="1" source="xGOn01LmJezI7kxOc0na-24" target="xGOn01LmJezI7kxOc0na-27" edge="1">
          <mxGeometry relative="1" as="geometry">
            <mxPoint x="562.5" y="-1010" as="targetPoint" />
          </mxGeometry>
        </mxCell>
        <mxCell id="xGOn01LmJezI7kxOc0na-26" value="" style="edgeStyle=orthogonalEdgeStyle;rounded=0;orthogonalLoop=1;jettySize=auto;html=1;" parent="1" source="xGOn01LmJezI7kxOc0na-27" target="xGOn01LmJezI7kxOc0na-29" edge="1">
          <mxGeometry relative="1" as="geometry" />
        </mxCell>
        <mxCell id="xGOn01LmJezI7kxOc0na-37" style="edgeStyle=orthogonalEdgeStyle;rounded=0;orthogonalLoop=1;jettySize=auto;html=1;entryX=1;entryY=0;entryDx=0;entryDy=0;" parent="1" source="xGOn01LmJezI7kxOc0na-27" target="xGOn01LmJezI7kxOc0na-9" edge="1">
          <mxGeometry relative="1" as="geometry" />
        </mxCell>
        <mxCell id="xGOn01LmJezI7kxOc0na-56" value="1.tryAcquire尝试操作" style="edgeLabel;html=1;align=center;verticalAlign=middle;resizable=0;points=[];" parent="xGOn01LmJezI7kxOc0na-37" vertex="1" connectable="0">
          <mxGeometry x="-0.3025" y="3" relative="1" as="geometry">
            <mxPoint x="13" y="12" as="offset" />
          </mxGeometry>
        </mxCell>
        <mxCell id="xGOn01LmJezI7kxOc0na-27" value="acquire()&amp;nbsp;" style="html=1;" parent="1" vertex="1">
          <mxGeometry x="517.5" y="-985" width="90" height="30" as="geometry" />
        </mxCell>
        <mxCell id="xGOn01LmJezI7kxOc0na-43" value="否" style="edgeStyle=orthogonalEdgeStyle;rounded=0;orthogonalLoop=1;jettySize=auto;html=1;" parent="1" source="xGOn01LmJezI7kxOc0na-29" target="xGOn01LmJezI7kxOc0na-42" edge="1">
          <mxGeometry relative="1" as="geometry" />
        </mxCell>
        <mxCell id="xGOn01LmJezI7kxOc0na-29" value="操作成功？" style="rhombus;whiteSpace=wrap;html=1;" parent="1" vertex="1">
          <mxGeometry x="522.5" y="-920" width="80" height="50" as="geometry" />
        </mxCell>
        <mxCell id="xGOn01LmJezI7kxOc0na-48" value="" style="edgeStyle=orthogonalEdgeStyle;rounded=0;orthogonalLoop=1;jettySize=auto;html=1;" parent="1" source="xGOn01LmJezI7kxOc0na-39" target="xGOn01LmJezI7kxOc0na-47" edge="1">
          <mxGeometry relative="1" as="geometry" />
        </mxCell>
        <mxCell id="xGOn01LmJezI7kxOc0na-52" value="4. 唤醒线程" style="edgeStyle=orthogonalEdgeStyle;rounded=0;orthogonalLoop=1;jettySize=auto;html=1;entryX=0;entryY=0.5;entryDx=0;entryDy=0;exitX=0.5;exitY=1;exitDx=0;exitDy=0;" parent="1" source="xGOn01LmJezI7kxOc0na-39" target="xGOn01LmJezI7kxOc0na-51" edge="1">
          <mxGeometry x="-0.0175" y="20" relative="1" as="geometry">
            <mxPoint as="offset" />
          </mxGeometry>
        </mxCell>
        <mxCell id="xGOn01LmJezI7kxOc0na-39" value="双向队列" style="ellipse;whiteSpace=wrap;html=1;align=center;fillColor=#f8cecc;strokeColor=#b85450;" parent="1" vertex="1">
          <mxGeometry x="370" y="-770" width="100" height="40" as="geometry" />
        </mxCell>
        <mxCell id="xGOn01LmJezI7kxOc0na-44" style="edgeStyle=orthogonalEdgeStyle;rounded=0;orthogonalLoop=1;jettySize=auto;html=1;entryX=0.5;entryY=0;entryDx=0;entryDy=0;" parent="1" source="xGOn01LmJezI7kxOc0na-42" target="xGOn01LmJezI7kxOc0na-39" edge="1">
          <mxGeometry relative="1" as="geometry" />
        </mxCell>
        <mxCell id="xGOn01LmJezI7kxOc0na-45" value="2.插入等待队列尾部" style="edgeLabel;html=1;align=center;verticalAlign=middle;resizable=0;points=[];" parent="xGOn01LmJezI7kxOc0na-44" vertex="1" connectable="0">
          <mxGeometry x="-0.0337" y="1" relative="1" as="geometry">
            <mxPoint x="19" y="29" as="offset" />
          </mxGeometry>
        </mxCell>
        <mxCell id="xGOn01LmJezI7kxOc0na-42" value="将当前线程封装为 wait 节点" style="whiteSpace=wrap;html=1;fillColor=#dae8fc;strokeColor=#6c8ebf;" parent="1" vertex="1">
          <mxGeometry x="507.5" y="-840" width="112.5" height="40" as="geometry" />
        </mxCell>
        <mxCell id="xGOn01LmJezI7kxOc0na-47" value="park 当前线程" style="whiteSpace=wrap;html=1;fillColor=#dae8fc;strokeColor=#6c8ebf;" parent="1" vertex="1">
          <mxGeometry x="507.5" y="-770" width="110" height="40" as="geometry" />
        </mxCell>
        <mxCell id="xGOn01LmJezI7kxOc0na-55" value="" style="edgeStyle=orthogonalEdgeStyle;rounded=0;orthogonalLoop=1;jettySize=auto;html=1;" parent="1" source="xGOn01LmJezI7kxOc0na-51" target="xGOn01LmJezI7kxOc0na-54" edge="1">
          <mxGeometry relative="1" as="geometry" />
        </mxCell>
        <mxCell id="xGOn01LmJezI7kxOc0na-51" value="从双向队列头部开始 unpark 线程" style="whiteSpace=wrap;html=1;fillColor=#dae8fc;strokeColor=#6c8ebf;" parent="1" vertex="1">
          <mxGeometry x="512.5" y="-700" width="100" height="40" as="geometry" />
        </mxCell>
        <mxCell id="xGOn01LmJezI7kxOc0na-57" style="edgeStyle=orthogonalEdgeStyle;rounded=0;orthogonalLoop=1;jettySize=auto;html=1;entryX=0.36;entryY=1.025;entryDx=0;entryDy=0;entryPerimeter=0;" parent="1" edge="1">
          <mxGeometry relative="1" as="geometry">
            <mxPoint x="513.5" y="-610" as="sourcePoint" />
            <mxPoint x="347" y="-829" as="targetPoint" />
          </mxGeometry>
        </mxCell>
        <mxCell id="xGOn01LmJezI7kxOc0na-58" value="5.tryAcquire 尝试操作" style="edgeLabel;html=1;align=center;verticalAlign=middle;resizable=0;points=[];" parent="xGOn01LmJezI7kxOc0na-57" vertex="1" connectable="0">
          <mxGeometry x="-0.5587" relative="1" as="geometry">
            <mxPoint x="1" as="offset" />
          </mxGeometry>
        </mxCell>
        <mxCell id="xGOn01LmJezI7kxOc0na-54" value="从 park 处继续执行" style="whiteSpace=wrap;html=1;" parent="1" vertex="1">
          <mxGeometry x="512.5" y="-630" width="100" height="40" as="geometry" />
        </mxCell>
      </root>
    </mxGraphModel>
  </diagram>
</mxfile>
